<svg xmlns="http://www.w3.org/2000/svg" width="16" height="16" viewBox="0 0 16 16"><g><g><path fill="gray" d="M11.231 11.472a.267.267 0 0 0-.062.53c2.804.33 4.298 1.22 4.298 1.735 0 .724-2.84 1.733-7.467 1.733-4.626 0-7.467-1.01-7.467-1.733 0-.516 1.494-1.405 4.298-1.735a.267.267 0 0 0-.062-.53C1.96 11.802 0 12.734 0 13.737c0 1.126 2.748 2.267 8 2.267s8-1.14 8-2.267c0-1.003-1.961-1.934-4.769-2.265z"/></g><g><path fill="gray" d="M3.857 8.685c-1.528-2.038-1.307-5.4.48-7.187A5.08 5.08 0 0 1 7.955 0a5.08 5.08 0 0 1 3.616 1.498c1.787 1.787 2.01 5.15.475 7.195l-4.091 5.909zm2.277-3.618c0 1.029.838 1.866 1.867 1.866 1.03 0 1.867-.837 1.867-1.866C9.868 4.037 9.03 3.2 8 3.2c-1.03 0-1.867.838-1.867 1.867z"/></g></g></svg>