<svg xmlns="http://www.w3.org/2000/svg" width="36" height="36" viewBox="0 0 36 36"><g><g><g><g><path fill="#fff" d="M36 0v36H0V0zm-1.867 1.867h-15.2v15.2h15.2zm-32.266 0v15.2h15.2v-15.2zm0 32.266h15.2v-15.2h-15.2zm32.266 0v-15.2h-15.2v15.2z"/></g><g><path fill="#fff" d="M8.882 14.73h1.867V11.27h3.462V9.402h-3.462V5.94H8.882v3.462H5.42v1.867h3.462z"/></g><g><path fill="#fff" d="M13.586 24.15l-1.32-1.32-2.448 2.448L7.37 22.83l-1.32 1.32 2.448 2.448-2.448 2.448 1.32 1.32 2.448-2.448 2.448 2.448 1.32-1.32-2.448-2.448z"/></g><g><path fill="#fff" d="M30.931 9.41H22.14v1.867h8.791z"/></g><g><path fill="#fff" d="M30.931 25.66H22.14v1.867h8.791z"/></g><g><path fill="#fff" d="M24.09 22.51c0-1.35 1.1-2.45 2.45-2.45 1.351 0 2.45 1.1 2.45 2.45 0 1.351-1.099 2.45-2.45 2.45-1.35 0-2.45-1.099-2.45-2.45zm1.867 0a.584.584 0 1 0 1.168-.001.584.584 0 0 0-1.168.001z"/></g><g><path fill="#fff" d="M28.99 30.6c0 1.351-1.099 2.45-2.45 2.45-1.35 0-2.45-1.099-2.45-2.45 0-1.35 1.1-2.45 2.45-2.45 1.351 0 2.45 1.1 2.45 2.45zm-1.866 0a.584.584 0 1 0-1.169.001.584.584 0 0 0 1.169 0z"/></g></g></g></g></svg>