<svg xmlns="http://www.w3.org/2000/svg" width="32" height="36" viewBox="0 0 32 36"><g><g><path fill="#fff" d="M23.203 36H0V0h23.203v10.361l4.002-4.002 4.475 4.475-8.477 8.477zM15.38 22.66l2.237-.745.57-.57-1.492-1.492-.57.57zm10.335-8.843l-1.492-1.492-6.036 6.037 1.491 1.491zm1.491-4.475l-1.491 1.492 1.491 1.491 1.492-1.491zm-6.111 24.549V21.42l-2.339 2.338-4.873 1.625H4.22v-2.11h8.732l.703-2.109H4.219v-2.11h10.29l2.11-2.109H4.22v-2.11h14.51l2.365-2.364V2.109H2.109v31.782zM10.547 4.289h2.11V6.4h-2.11zm-2.11 25.383h6.329v2.11H8.437zM4.22 10.617h14.765v2.11H4.22z"/></g></g></svg>