<svg xmlns="http://www.w3.org/2000/svg" width="16" height="16" viewBox="0 0 16 16"><g><g><path fill="gray" d="M12.164 10.588c-.522-.516-1.175-.516-1.694 0a98.65 98.65 0 0 0-1.182 1.186c-.107.11-.197.133-.327.06-.256-.14-.529-.253-.775-.407-1.15-.722-2.111-1.651-2.964-2.696-.423-.52-.799-1.076-1.062-1.702-.053-.126-.043-.21.06-.313.396-.383.783-.776 1.172-1.168.543-.547.543-1.186-.003-1.735-.31-.313-.62-.62-.93-.932-.319-.32-.635-.643-.958-.96-.523-.509-1.175-.509-1.695.004-.4.393-.782.796-1.188 1.182-.377.356-.566.792-.606 1.302-.064.829.14 1.611.426 2.374.586 1.578 1.478 2.98 2.56 4.265a15.845 15.845 0 0 0 5.248 4.105c.918.446 1.87.79 2.906.846.713.04 1.332-.14 1.828-.696.34-.38.723-.726 1.082-1.089.533-.54.536-1.192.007-1.724-.633-.636-1.269-1.269-1.905-1.902z"/></g><g><path fill="gray" d="M11.53 7.935l1.228-.21a5.491 5.491 0 0 0-1.535-2.963A5.462 5.462 0 0 0 8.093 3.2L7.92 4.435c.922.13 1.761.546 2.424 1.209a4.237 4.237 0 0 1 1.185 2.29z"/></g><g><path fill="gray" d="M13.447 2.59A9.06 9.06 0 0 0 8.253 0L8.08 1.235a7.855 7.855 0 0 1 4.488 2.238 7.849 7.849 0 0 1 2.201 4.245l1.229-.21a9.126 9.126 0 0 0-2.55-4.918z"/></g></g></svg>